# xmcd
#
# Track frame offsets: 
#        150
#        9890
#        25538
#        40896
#        56898
#        73475
#        87934
#        102376
#        117127
#        137944
#        155933
#        168663
#        185482
#        205467
#        223155
#        235120
#        257068
#        272131
#        286707
#        306217
#
# Disc length: 4321 seconds
#
# Revision: 0
# Processed by: cddbd v1.5.2PL0 Copyright (c) Steve Scherf et al.
# Submitted via: ExactAudioCopyFreeDBPlugin 1.0
#
DISCID=2f10df14
DTITLE=Various Artist - Keep On The Groove
DYEAR=2011
DGENRE=Funk
TTITLE0=Black Joe Lewis and The Honeybears - Gunpowder
TTITLE1=The New Mastersounds - Nervous (Kenny Dope Remix)
TTITLE2=Nicole Willis and The Soul Investigators - Keep Reachin' Up
TTITLE3=Lefties Soul Connection - Organ Donor
TTITLE4=The Soultwisters - Soulpudding
TTITLE5=Trio Valore - Rehab
TTITLE6=Funkshone - Stop The Bus
TTITLE7=Black Joe Lewis and The Honeybears - Sugarfoot
TTITLE8=Osaka Monaurail - Quick Sand
TTITLE9=Speedometer (feat. Martha High) - Dragging Me Down
TTITLE10=The Sweet Vandals - Papa's Got A Brand New Bag
TTITLE11=Drawbar - Catch My Soul
TTITLE12=Electro Deluxe (feat. Ben I'Oncle Soul) - Where Is the Love?
TTITLE13=The Ray Mann Three - Feel So Good
TTITLE14=Undercover Express - Signed Sealed Delivered, I'm Yours
TTITLE15=The Sound Stylistics - The Crisis Generator
TTITLE16=The Underbelly - Vfunk
TTITLE17=Speedometer - Same Old Thing
TTITLE18=The New Mastersounds - Run The Gauntlet
TTITLE19=Mountain Mocha Kilimanjaro - Just A Ramblin' Man
EXTD=
EXTT0=
EXTT1=
EXTT2=
EXTT3=
EXTT4=
EXTT5=
EXTT6=
EXTT7=
EXTT8=
EXTT9=
EXTT10=
EXTT11=
EXTT12=
EXTT13=
EXTT14=
EXTT15=
EXTT16=
EXTT17=
EXTT18=
EXTT19=
PLAYORDER=
